<?xml version="1.0" encoding="utf-8"?>
<!-- Generator: Adobe Illustrator 23.0.0, SVG Export Plug-In . SVG Version: 6.00 Build 0)  -->
<svg version="1.1" id="Layer_1" xmlns="http://www.w3.org/2000/svg" xmlns:xlink="http://www.w3.org/1999/xlink" x="0px" y="0px"
	 viewBox="0 0 15 15" style="enable-background:new 0 0 15 15;" xml:space="preserve">
<style type="text/css">
	.st0{fill-rule:evenodd;clip-rule:evenodd;fill:#FFFFFF;}
</style>
<path class="st0" d="M7.7,6.5c0.3,0,0.6,0.3,0.7,0.6L9.9,7L10,7L8.4,7.2c0,0,0,0.1,0,0.2c0,0.5-0.4,0.8-0.8,0.8
	c-0.5,0-0.8-0.4-0.8-0.8c0-0.1,0-0.1,0-0.2L5.2,7l0.1,0l1.5,0.1c0.1-0.3,0.4-0.5,0.7-0.6l0.1-1.9L7.7,6.5z M1.2,7.4l5.5,0.4v0
	c0-0.1,0-0.1,0.1-0.1c0.1,0.4,0.4,0.7,0.8,0.7C8,8.2,8.3,8,8.4,7.6c0,0,0,0.1,0,0.1v0l5.5-0.4L14,7.5L9.2,8v0.8h0V8.7h0v0
	c0,0,0-0.1,0.1-0.1l0,0c0,0,0.1,0,0.1,0.1v0.2c0,0,0,0.1-0.1,0.1l0,0c0,0-0.1,0-0.1-0.1v0h0V8.8h0v0H9.1v0h0v0.1h0v0C9.1,9,9,9,9,9
	l0,0c0,0-0.1,0-0.1-0.1V8.7c0,0,0-0.1,0.1-0.1l0,0c0,0,0.1,0,0.1,0.1v0h0v0.1h0V8L8.4,8.1c0,0.1-0.1,0.2-0.2,0.2H7.6v0.4h0v0h0v0
	c0,0,0-0.1,0.1-0.1l0,0c0,0,0.1,0,0.1,0.1v0.1c0,0,0,0.1-0.1,0.1l0,0c0,0-0.1,0-0.1-0.1v0h0v0h0v0h0v0h0v0h0v0c0,0,0,0.1-0.1,0.1
	l0,0c0,0-0.1,0-0.1-0.1V8.6c0,0,0-0.1,0.1-0.1l0,0c0,0,0.1,0,0.1,0.1v0h0v0h0V8.3H6.9c-0.1,0-0.2-0.1-0.2-0.2L6.1,8v0.8h0V8.7h0v0
	c0,0,0-0.1,0.1-0.1l0,0c0,0,0.1,0,0.1,0.1v0.2c0,0,0,0.1-0.1,0.1l0,0c0,0-0.1,0-0.1-0.1v0h0V8.8h0v0H6v0h0v0.1h0v0C6,9,5.9,9,5.9,9
	l0,0c0,0-0.1,0-0.1-0.1V8.7c0,0,0-0.1,0.1-0.1l0,0c0,0,0.1,0,0.1,0.1v0h0v0.1h0V8L1.1,7.5L1.2,7.4z M9.9,7.9c0.2,0,0.3,0.1,0.3,0.3
	c0,0.2-0.1,0.3-0.3,0.3c-0.2,0-0.3-0.1-0.3-0.3C9.6,8.1,9.8,7.9,9.9,7.9L9.9,7.9z M5.3,7.9c0.2,0,0.3,0.1,0.3,0.3
	c0,0.2-0.1,0.3-0.3,0.3C5.1,8.6,5,8.5,5,8.3C5,8.1,5.1,7.9,5.3,7.9L5.3,7.9z"/>
</svg>
